<?xml version="1.0" encoding="UTF-8"?>
<svg version="1.1" xmlns="http://www.w3.org/2000/svg" width="70" height="69">
<path d="M0 0 C23.1 0 46.2 0 70 0 C70 22.77 70 45.54 70 69 C46.9 69 23.8 69 0 69 C0 46.23 0 23.46 0 0 Z " fill="#5247EB" transform="translate(0,0)"/>
<path d="M0 0 C3.0625 0.25 3.0625 0.25 6.0625 2.25 C6.47093923 4.96203652 6.19586867 7.4937142 6.0625 10.25 C6.70058594 10.31058594 7.33867188 10.37117188 7.99609375 10.43359375 C8.82238281 10.51738281 9.64867188 10.60117187 10.5 10.6875 C11.73556641 10.80931641 11.73556641 10.80931641 12.99609375 10.93359375 C15.0625 11.25 15.0625 11.25 16.0625 12.25 C16.18908222 14.90822657 16.24770214 17.52887424 16.25 20.1875 C16.26224609 20.92935547 16.27449219 21.67121094 16.28710938 22.43554688 C16.29238478 24.37513629 16.18438902 26.3142371 16.0625 28.25 C12.6149689 31.6975311 7.77773797 31.7613743 3.0625 32.25 C-0.32351537 32.17171063 -3.59287172 31.7619329 -6.9375 31.25 C-7.63359375 31.17523438 -8.3296875 31.10046875 -9.046875 31.0234375 C-13.68110465 30.50639535 -13.68110465 30.50639535 -15.9375 28.25 C-16.23828125 25.0625 -16.23828125 25.0625 -16.25 21.25 C-16.26675781 19.991875 -16.28351562 18.73375 -16.30078125 17.4375 C-16.18089844 16.385625 -16.06101562 15.33375 -15.9375 14.25 C-12.70958445 12.0980563 -11.65349191 12.04913557 -7.9375 12.25 C-7.81375 11.528125 -7.69 10.80625 -7.5625 10.0625 C-5.42906627 0.46204819 -5.42906627 0.46204819 0 0 Z " fill="#DEDEFD" transform="translate(34.9375,15.75)"/>
<path d="M0 0 C4.62 0 9.24 0 14 0 C12.35 1.32 10.7 2.64 9 4 C4.46343548 8.00285105 2.21861965 11.86241503 1.59594727 17.95068359 C1.56963097 19.43306736 1.56062822 20.91583142 1.56640625 22.3984375 C1.5611644 23.19222809 1.55592255 23.98601868 1.55052185 24.80386353 C1.54412445 26.47632686 1.54540899 28.14883533 1.55395508 29.82128906 C1.56245267 32.36085411 1.53369491 34.8981574 1.50195312 37.4375 C1.50034037 39.07031183 1.50092007 40.7031276 1.50390625 42.3359375 C1.49267227 43.08515472 1.48143829 43.83437195 1.46986389 44.60629272 C1.54920605 50.70264932 3.24358955 55.9320118 7.3764801 60.53207397 C12.92278163 65.50249357 18.76691365 66.31337098 25.9609375 66.3359375 C27.08503525 66.3459227 27.08503525 66.3459227 28.23184204 66.35610962 C29.81013553 66.36618912 31.38847123 66.3709281 32.96679688 66.37060547 C35.36140267 66.37497519 37.75415747 66.41133146 40.1484375 66.44921875 C52.25054261 66.60204563 52.25054261 66.60204563 62.49707031 60.62304688 C67.62876871 55.04400694 68.30978685 49.03886213 68.30078125 41.75 C68.30720894 40.58549316 68.30720894 40.58549316 68.31376648 39.39746094 C68.3194838 37.76368175 68.32002929 36.12987713 68.31567383 34.49609375 C68.31250937 32.00736872 68.33601971 29.51982878 68.36132812 27.03125 C68.36360108 25.43750149 68.36430463 23.8437498 68.36328125 22.25 C68.372491 21.51233398 68.38170074 20.77466797 68.39118958 20.01464844 C68.34150803 14.4239688 67.15914126 10.25050804 63.24609375 6.171875 C62.64925781 5.70265625 62.05242188 5.2334375 61.4375 4.75 C59.51515873 3.21212698 57.74497835 1.74497835 56 0 C60.62 0 65.24 0 70 0 C70 22.77 70 45.54 70 69 C46.9 69 23.8 69 0 69 C0 46.23 0 23.46 0 0 Z " fill="#E8E9FD" transform="translate(0,0)"/>
<path d="M0 0 C4.77554338 0.01427666 9.21649744 0.27657908 13.92578125 1.1328125 C15.9254384 1.16984319 17.9263479 1.18041806 19.92578125 1.1328125 C18.92578125 4.1328125 18.92578125 4.1328125 17.05078125 5.3203125 C14.92578125 6.1328125 14.92578125 6.1328125 11.92578125 6.1328125 C11.94640625 7.2465625 11.96703125 8.3603125 11.98828125 9.5078125 C11.92578125 13.1328125 11.92578125 13.1328125 10.92578125 15.1328125 C7.9469724 16.12574878 5.90976927 16.26687661 2.80078125 16.2578125 C1.91132813 16.26039062 1.021875 16.26296875 0.10546875 16.265625 C-2.07421875 16.1328125 -2.07421875 16.1328125 -3.07421875 15.1328125 C-3.17331177 12.80121195 -3.20392379 10.46651308 -3.19921875 8.1328125 C-3.20179687 6.8540625 -3.204375 5.5753125 -3.20703125 4.2578125 C-3.03433149 0.19428865 -3.03433149 0.19428865 0 0 Z " fill="#EDF0FD" transform="translate(22.07421875,28.8671875)"/>
<path d="M0 0 C3.55971854 2.25448841 4.77055465 3.98710936 6 8 C6.20016512 10.72954053 6.30415723 13.35373468 6.30078125 16.08203125 C6.30506638 16.85504074 6.3093515 17.62805023 6.31376648 18.42448425 C6.31949301 20.05584741 6.32002242 21.6872361 6.31567383 23.31860352 C6.31252325 25.79423439 6.33596003 28.26865808 6.36132812 30.74414062 C6.36360248 32.33593601 6.36430398 33.92773457 6.36328125 35.51953125 C6.372491 36.25001175 6.38170074 36.98049225 6.39118958 37.73310852 C6.33714858 43.84105176 5.1439995 49.42540645 1.1328125 54.2421875 C0.13894531 55.05042969 0.13894531 55.05042969 -0.875 55.875 C-1.53242187 56.42929687 -2.18984375 56.98359375 -2.8671875 57.5546875 C-7.70570195 60.83353429 -12.12838044 61.30809478 -17.86328125 61.30078125 C-18.6140947 61.30506638 -19.36490814 61.3093515 -20.13847351 61.31376648 C-21.72275793 61.319492 -23.30706863 61.32002317 -24.89135742 61.31567383 C-27.29457366 61.3125235 -29.69654594 61.33596013 -32.09960938 61.36132812 C-33.6458318 61.36360253 -35.19205749 61.36430396 -36.73828125 61.36328125 C-37.80119133 61.37709587 -37.80119133 61.37709587 -38.88557434 61.39118958 C-44.16343085 61.34312605 -48.14099045 60.06054151 -53 58 C-52.34 57.34 -51.68 56.68 -51 56 C-48.96015943 56.4774095 -46.92156219 56.96060881 -44.88867188 57.46679688 C-39.5628697 58.44985569 -34.17912566 58.29484149 -28.77832031 58.26074219 C-26.73993699 58.24994671 -24.70242042 58.26072831 -22.6640625 58.2734375 C-21.36726563 58.27085938 -20.07046875 58.26828125 -18.734375 58.265625 C-17.56100586 58.26336914 -16.38763672 58.26111328 -15.17871094 58.25878906 C-12.04490194 58.00365561 -9.82554864 57.33646194 -7 56 C-7 54.68 -7 53.36 -7 52 C-4 51 -4 51 -1 51 C1.35953094 48.64046906 1.49141413 47.22104383 2 44 C2.33 44 2.66 44 3 44 C3.04954963 38.9646141 3.08579037 33.9293711 3.10986328 28.89379883 C3.11990208 27.18185961 3.13353595 25.46993745 3.15087891 23.75805664 C3.17522073 21.29308858 3.18650438 18.82834785 3.1953125 16.36328125 C3.20563507 15.60163162 3.21595764 14.83998199 3.22659302 14.05525208 C3.22746597 9.89241008 2.81883724 6.74886792 1 3 C0.505 1.515 0.505 1.515 0 0 Z " fill="#6057C8" transform="translate(63,6)"/>
<path d="M0 0 C4.62 0 9.24 0 14 0 C14 22.77 14 45.54 14 69 C10.04 69 6.08 69 2 69 C2.495 68.01 2.495 68.01 3 67 C3.66 67 4.32 67 5 67 C5 66.34 5 65.68 5 65 C5.63550781 64.76023437 6.27101563 64.52046875 6.92578125 64.2734375 C9.1606669 63.18817861 9.1606669 63.18817861 9.79296875 60.9765625 C9.92316406 60.20054688 10.05335937 59.42453125 10.1875 58.625 C10.32542969 57.85414062 10.46335937 57.08328125 10.60546875 56.2890625 C10.80076172 55.15597656 10.80076172 55.15597656 11 54 C11.16894775 53.45891602 11.33789551 52.91783203 11.51196289 52.36035156 C12.22635568 48.90524926 12.18316114 45.45899916 12.203125 41.9453125 C12.20882507 41.16614471 12.21452515 40.38697693 12.22039795 39.584198 C12.22982646 37.93846994 12.23637338 36.29272319 12.24023438 34.64697266 C12.24993954 32.14061287 12.28098207 29.63507378 12.3125 27.12890625 C12.31903092 25.52604651 12.32428104 23.92318094 12.328125 22.3203125 C12.3466452 21.20440231 12.3466452 21.20440231 12.36553955 20.06594849 C12.34168798 14.44394095 11.1814856 10.27379791 7.24609375 6.171875 C6.64925781 5.70265625 6.05242188 5.2334375 5.4375 4.75 C3.51515873 3.21212698 1.74497835 1.74497835 0 0 Z " fill="#ECECF6" transform="translate(56,0)"/>
<path d="M0 0 C3.0625 0.25 3.0625 0.25 6.0625 2.25 C6.47093923 4.96203652 6.19586867 7.4937142 6.0625 10.25 C6.70058594 10.31058594 7.33867188 10.37117188 7.99609375 10.43359375 C8.82238281 10.51738281 9.64867188 10.60117187 10.5 10.6875 C11.73556641 10.80931641 11.73556641 10.80931641 12.99609375 10.93359375 C15.0625 11.25 15.0625 11.25 16.0625 12.25 C16.13569621 14.94654854 16.15492537 17.61691458 16.125 20.3125 C16.12048828 21.07111328 16.11597656 21.82972656 16.11132812 22.61132812 C16.0995068 24.49091871 16.08157078 26.37046899 16.0625 28.25 C15.7325 28.25 15.4025 28.25 15.0625 28.25 C15.0625 23.3 15.0625 18.35 15.0625 13.25 C13.350625 13.394375 11.63875 13.53875 9.875 13.6875 C8.91207031 13.76871094 7.94914062 13.84992187 6.95703125 13.93359375 C4.1136558 14.18250509 4.1136558 14.18250509 1.59375 14.84375 C-1.57040595 15.3515775 -4.10747143 14.89956578 -7.25 14.3125 C-8.31863281 14.11785156 -9.38726563 13.92320313 -10.48828125 13.72265625 C-11.29652344 13.56667969 -12.10476562 13.41070312 -12.9375 13.25 C-12.9375 12.92 -12.9375 12.59 -12.9375 12.25 C-11.2875 12.25 -9.6375 12.25 -7.9375 12.25 C-7.751875 11.1671875 -7.751875 11.1671875 -7.5625 10.0625 C-5.42906627 0.46204819 -5.42906627 0.46204819 0 0 Z " fill="#6963D2" transform="translate(34.9375,15.75)"/>
<path d="M0 0 C0.515625 0.2475 1.03125 0.495 1.5625 0.75 C-0.1875 4.625 -0.1875 4.625 -2.4375 5.75 C-3.08963292 7.77463255 -3.08963292 7.77463255 -3.4375 9.75 C-4.4275 9.75 -5.4175 9.75 -6.4375 9.75 C-6.4375 8.76 -6.4375 7.77 -6.4375 6.75 C-7.0975 6.75 -7.7575 6.75 -8.4375 6.75 C-13.29154087 15.07121291 -12.74211288 24.31350378 -12.6875 33.625 C-12.69523438 34.93597656 -12.70296875 36.24695312 -12.7109375 37.59765625 C-12.69631298 44.88798045 -12.26829773 51.67911718 -10.4375 58.75 C-14.36649326 55.35677855 -15.32642592 52.06159977 -15.75976562 46.94458008 C-15.79978357 45.46984102 -15.82707954 43.99471897 -15.84375 42.51953125 C-15.85515015 41.72906906 -15.86655029 40.93860687 -15.8782959 40.12419128 C-15.89713731 38.45418601 -15.91024056 36.78410735 -15.91796875 35.11401367 C-15.9373123 32.58702065 -15.99936286 30.0633348 -16.0625 27.53710938 C-16.18273939 18.3754005 -16.00580116 10.87457423 -9.4375 3.75 C-6.51609688 1.29899901 -3.95931816 -0.40608391 0 0 Z " fill="#5F5ACC" transform="translate(16.4375,0.25)"/>
<path d="M0 0 C1 3 1 3 0 6 C-2.0625 6.6875 -2.0625 6.6875 -4 7 C-4 7.66 -4 8.32 -4 9 C-7.06338031 11.04225354 -7.68261477 11.25124228 -11.13256836 11.25878906 C-12.37416969 11.26824554 -12.37416969 11.26824554 -13.64085388 11.27789307 C-14.53152054 11.2738446 -15.42218719 11.26979614 -16.33984375 11.265625 C-17.2583461 11.26753845 -18.17684845 11.2694519 -19.1231842 11.27142334 C-21.06576817 11.27278434 -23.00836125 11.26909386 -24.95092773 11.26074219 C-27.92257169 11.25005369 -30.89360941 11.26063408 -33.86523438 11.2734375 C-35.7526055 11.27211565 -37.63997625 11.26955273 -39.52734375 11.265625 C-40.86030739 11.27169769 -40.86030739 11.27169769 -42.22019958 11.27789307 C-43.05108597 11.27158875 -43.88197235 11.26528442 -44.73803711 11.25878906 C-45.46623154 11.25719788 -46.19442596 11.25560669 -46.94468689 11.25396729 C-49.30687651 10.96208043 -50.9420526 10.16787586 -53 9 C-53 8.34 -53 7.68 -53 7 C-51.7612915 7.24012817 -51.7612915 7.24012817 -50.49755859 7.48510742 C-46.66450179 8.04939032 -42.90441802 8.19803828 -39.0390625 8.23828125 C-37.91496475 8.25038887 -37.91496475 8.25038887 -36.76815796 8.26274109 C-35.18986269 8.27650547 -33.61153862 8.28726143 -32.03320312 8.29516602 C-30.43122533 8.30669688 -28.82928629 8.32716641 -27.22753906 8.35668945 C-13.29102102 8.67867825 -13.29102102 8.67867825 -1.5 1.75 C-1.005 1.1725 -0.51 0.595 0 0 Z " fill="#CCCAFC" transform="translate(65,58)"/>
<path d="M0 0 C0.53625 0.721875 1.0725 1.44375 1.625 2.1875 C3.46239383 4.36336111 5.00021468 5.89098344 7.1875 7.625 C10 10 10 10 11 13 C11.99 13.66 12.98 14.32 14 15 C8.72 15 3.44 15 -2 15 C-2 10 -2 10 0 7 C0 6.01 0 5.02 0 4 C0 2.68 0 1.36 0 0 Z " fill="#E7E7F3" transform="translate(2,54)"/>
<path d="M0 0 C0 2.97 0 5.94 0 9 C-3.63 9.66 -7.26 10.32 -11 11 C-11 8.03 -11 5.06 -11 2 C-6.78370866 -0.10814567 -4.60209225 -0.17700355 0 0 Z " fill="#534ACE" transform="translate(46,33)"/>
<path d="M0 0 C0.33 0 0.66 0 1 0 C1.05394705 2.60444348 1.09364469 5.20776998 1.125 7.8125 C1.14175781 8.55048828 1.15851562 9.28847656 1.17578125 10.04882812 C1.21074628 13.91246426 1.19397555 15.70903668 -1 19 C-5.94588031 20.07304635 -10.82787464 20.13499431 -15.875 20.125 C-17.85113281 20.12886719 -17.85113281 20.12886719 -19.8671875 20.1328125 C-23 20 -23 20 -24 19 C-26.02825491 18.80683287 -28.05723921 18.61674212 -30.08984375 18.4765625 C-32 18 -32 18 -34 15 C-33.9765625 11.86328125 -33.9765625 11.86328125 -33.625 8.3125 C-33.51414062 7.13300781 -33.40328125 5.95351563 -33.2890625 4.73828125 C-33.19367187 3.83464844 -33.09828125 2.93101563 -33 2 C-32.67 2 -32.34 2 -32 2 C-31.93941406 2.92683594 -31.87882812 3.85367188 -31.81640625 4.80859375 C-31.73261719 6.00613281 -31.64882813 7.20367187 -31.5625 8.4375 C-31.48128906 9.63246094 -31.40007813 10.82742187 -31.31640625 12.05859375 C-31.32343886 14.88570244 -31.32343886 14.88570244 -30 16 C-22.76467044 17.91716536 -16.35304653 18.13603945 -9 17 C-8.29230469 16.91363281 -7.58460937 16.82726562 -6.85546875 16.73828125 C-3.64503391 16.54613073 -3.64503391 16.54613073 -1 15 C-0.76346477 12.47403741 -0.57826308 9.96892793 -0.4375 7.4375 C-0.37272461 6.37112305 -0.37272461 6.37112305 -0.30664062 5.28320312 C-0.20028223 3.52238088 -0.09961154 1.7612168 0 0 Z " fill="#5045C8" transform="translate(51,29)"/>
<path d="M0 0 C3 0.25 3 0.25 5 2.25 C5.3125 5.25 5.3125 5.25 5 8.25 C1.77626323 10.39915785 0.73296326 10.63286803 -3 10.25 C-5 8.25 -5 8.25 -5.25 5.25 C-4.90584825 1.120179 -4.129821 0.34415175 0 0 Z " fill="#E5E8FD" transform="translate(35,15.75)"/>
<path d="M0 0 C0.515625 0.2475 1.03125 0.495 1.5625 0.75 C-0.1875 4.625 -0.1875 4.625 -2.4375 5.75 C-3.08963292 7.77463255 -3.08963292 7.77463255 -3.4375 9.75 C-4.4275 9.75 -5.4175 9.75 -6.4375 9.75 C-6.4375 8.76 -6.4375 7.77 -6.4375 6.75 C-7.0975 6.75 -7.7575 6.75 -8.4375 6.75 C-8.72625 7.36875 -9.015 7.9875 -9.3125 8.625 C-10.4375 10.75 -10.4375 10.75 -12.4375 12.75 C-13.14460678 14.39991582 -13.81693989 16.06562256 -14.4375 17.75 C-15.4737228 15.08542709 -15.54270511 14.01470963 -14.46875 11.3125 C-7.26366382 -0.74499116 -7.26366382 -0.74499116 0 0 Z " fill="#5F59F7" transform="translate(16.4375,0.25)"/>
<path d="M0 0 C4.62 0 9.24 0 14 0 C14 3.63 14 7.26 14 11 C11 11 11 11 9.31640625 9.35546875 C8.44822266 8.28232422 8.44822266 8.28232422 7.5625 7.1875 C5.12109284 4.18899322 3.18684867 2.3901365 0 0 Z " fill="#F6F6FC" transform="translate(56,0)"/>
<path d="M0 0 C4.62 0 9.24 0 14 0 C12.35 1.32 10.7 2.64 9 4 C8.2884375 4.804375 8.2884375 4.804375 7.5625 5.625 C5.31444054 7.60329233 2.84177263 8.17904346 0 9 C0 6.03 0 3.06 0 0 Z " fill="#EFF3FC" transform="translate(0,0)"/>
<path d="M0 0 C0.99 0 1.98 0 3 0 C3 14.85 3 29.7 3 45 C1.68 45.66 0.36 46.32 -1 47 C-0.67475342 45.85635986 -0.34950684 44.71271973 -0.0144043 43.53442383 C1.08576581 39.11585297 1.2747022 34.98461973 1.23046875 30.44921875 C1.23001053 29.66859573 1.22955231 28.88797272 1.2290802 28.08369446 C1.22608198 26.44925396 1.21826956 24.81481569 1.20581055 23.18041992 C1.18742154 20.67681814 1.18530216 18.17358454 1.18554688 15.66992188 C1.18063548 14.07551763 1.17480881 12.48111589 1.16796875 10.88671875 C1.16685593 10.13984299 1.1657431 9.39296722 1.16459656 8.62345886 C1.13577084 5.48464067 0.99999771 2.99999312 0 0 Z " fill="#E7E5FE" transform="translate(67,11)"/>
<path d="M0 0 C0.66 0.33 1.32 0.66 2 1 C1.51655629 7.28476821 1.51655629 7.28476821 -0.625 10.25 C-4.21019617 12.89172349 -7.8697374 15.27311059 -12.4375 14.6875 C-12.953125 14.460625 -13.46875 14.23375 -14 14 C-12.35 13.34 -10.7 12.68 -9 12 C-9 10.68 -9 9.36 -9 8 C-6 7 -6 7 -3 7 C-0.64046906 4.64046906 -0.50858587 3.22104383 0 0 Z " fill="#4E3FC7" transform="translate(65,50)"/>
<path d="M0 0 C3.63 0 7.26 0 11 0 C10 4 10 4 9 5 C8.76924918 6.34747084 8.58846937 7.70377565 8.4375 9.0625 C8.293125 10.361875 8.14875 11.66125 8 13 C7.67 13 7.34 13 7 13 C7 10.03 7 7.06 7 4 C5.35 4 3.7 4 2 4 C2 3.34 2 2.68 2 2 C1.34 1.34 0.68 0.68 0 0 Z " fill="#D7D7FC" transform="translate(39,29)"/>
<path d="M0 0 C0.33 0 0.66 0 1 0 C1.2475 0.94875 1.495 1.8975 1.75 2.875 C2.6857077 6.08693191 2.6857077 6.08693191 5.125 7.375 C5.74375 7.58125 6.3625 7.7875 7 8 C6.01 8.33 5.02 8.66 4 9 C3.67 9.66 3.34 10.32 3 11 C-0.3 10.67 -3.6 10.34 -7 10 C-7 9.67 -7 9.34 -7 9 C-5.35 9 -3.7 9 -2 9 C-1.7834375 7.88625 -1.7834375 7.88625 -1.5625 6.75 C-1.09812508 4.47972261 -0.58136431 2.24240521 0 0 Z " fill="#6C67DD" transform="translate(29,19)"/>
<path d="M0 0 C0.33 0 0.66 0 1 0 C1.06058594 0.92683594 1.12117188 1.85367188 1.18359375 2.80859375 C1.26738281 4.00613281 1.35117187 5.20367187 1.4375 6.4375 C1.51871094 7.63246094 1.59992187 8.82742187 1.68359375 10.05859375 C1.67656114 12.88570244 1.67656114 12.88570244 3 14 C4.84599688 14.39454223 6.70225822 14.74176866 8.5625 15.0625 C10.08037109 15.32740234 10.08037109 15.32740234 11.62890625 15.59765625 C12.41136719 15.73042969 13.19382812 15.86320312 14 16 C12.02 16.99 12.02 16.99 10 18 C9.67 17.67 9.34 17.34 9 17 C6.97174509 16.80683287 4.94276079 16.61674212 2.91015625 16.4765625 C1 16 1 16 -1 13 C-0.9765625 9.86328125 -0.9765625 9.86328125 -0.625 6.3125 C-0.51414062 5.13300781 -0.40328125 3.95351563 -0.2890625 2.73828125 C-0.19367187 1.83464844 -0.09828125 0.93101563 0 0 Z " fill="#5852CB" transform="translate(18,31)"/>
<path d="M0 0 C0.33 0 0.66 0 1 0 C1.05447047 1.41623216 1.09300508 2.83308191 1.125 4.25 C1.14820313 5.03890625 1.17140625 5.8278125 1.1953125 6.640625 C0.9828378 9.20731941 0.28654105 10.7916067 -1 13 C-1.99 13 -2.98 13 -4 13 C-3.71812064 11.20676747 -3.4241719 9.41542874 -3.125 7.625 C-2.96257813 6.62726562 -2.80015625 5.62953125 -2.6328125 4.6015625 C-2 2 -2 2 0 0 Z " fill="#EBEEFE" transform="translate(49,32)"/>
<path d="M0 0 C1 3 1 3 0 6 C-2.0625 6.6875 -2.0625 6.6875 -4 7 C-4 7.66 -4 8.32 -4 9 C-4.99 9.66 -5.98 10.32 -7 11 C-7.99 10.67 -8.98 10.34 -10 10 C-9.34 9.34 -8.68 8.68 -8 8 C-7.01 8 -6.02 8 -5 8 C-4.9175 7.4225 -4.835 6.845 -4.75 6.25 C-3.79468987 3.3840696 -2.21530827 2.0009236 0 0 Z " fill="#D7D4F9" transform="translate(65,58)"/>
<path d="M0 0 C0.87269531 -0.01417969 1.74539062 -0.02835938 2.64453125 -0.04296875 C5.29669085 0.19739594 6.91214999 0.84562691 9.1875 2.1875 C8.33285156 2.17589844 7.47820313 2.16429688 6.59765625 2.15234375 C4.94056641 2.13880859 4.94056641 2.13880859 3.25 2.125 C1.59677734 2.10759766 1.59677734 2.10759766 -0.08984375 2.08984375 C-2.72697634 1.87487429 -2.72697634 1.87487429 -3.8125 3.1875 C-4.04677778 5.20344582 -4.22586124 7.225974 -4.375 9.25 C-4.45878906 10.35472656 -4.54257812 11.45945312 -4.62890625 12.59765625 C-4.68949219 13.45230469 -4.75007813 14.30695312 -4.8125 15.1875 C-5.1425 15.1875 -5.4725 15.1875 -5.8125 15.1875 C-5.83935412 12.87506208 -5.85882841 10.5625373 -5.875 8.25 C-5.88660156 6.96222656 -5.89820312 5.67445312 -5.91015625 4.34765625 C-5.75873925 -0.55219798 -4.46004366 0.03265039 0 0 Z " fill="#C9C9FC" transform="translate(24.8125,28.8125)"/>
<path d="M0 0 C0.66 0 1.32 0 2 0 C1.50878726 4.42091465 0.12893119 5.96588491 -3 9 C-4.25436187 11.63222962 -4.25436187 11.63222962 -5 14 C-5.67578125 12.328125 -5.67578125 12.328125 -6 10 C-4.85546875 7.421875 -4.85546875 7.421875 -3.1875 4.75 C-2.37345703 3.41195313 -2.37345703 3.41195313 -1.54296875 2.046875 C-1.03378906 1.37140625 -0.52460937 0.6959375 0 0 Z " fill="#7270DD" transform="translate(7,4)"/>
<path d="M0 0 C2.7106722 0.42087527 5.37526959 0.89821806 8.0625 1.4375 C8.82111328 1.58509766 9.57972656 1.73269531 10.36132812 1.88476562 C12.24188598 2.25141527 14.12107695 2.62506271 16 3 C16 3.33 16 3.66 16 4 C13.91731407 4.08126087 11.83371342 4.13930839 9.75 4.1875 C8.00976562 4.23970703 8.00976562 4.23970703 6.234375 4.29296875 C2.77731593 3.97982934 1.48434437 3.34290892 -1 1 C-0.67 0.67 -0.34 0.34 0 0 Z " fill="#574DD4" transform="translate(11,62)"/>
<path d="M0 0 C1.42944945 2.35438733 2.08661261 3.48032433 1.625 6.25 C1.41875 6.8275 1.2125 7.405 1 8 C1.66 8 2.32 8 3 8 C3.33 9.65 3.66 11.3 4 13 C2.125 12.0625 2.125 12.0625 0 10 C-0.95351561 7.04514944 -1.51196718 4.0630481 -2 1 C-1.34 0.67 -0.68 0.34 0 0 Z " fill="#564EE1" transform="translate(6,50)"/>
<path d="M0 0 C1.32 0.33 2.64 0.66 4 1 C4.33 2.32 4.66 3.64 5 5 C-0.41538462 8.07692308 -0.41538462 8.07692308 -3.375 7.6875 C-3.91125 7.460625 -4.4475 7.23375 -5 7 C-3.35 6.34 -1.7 5.68 0 5 C0 3.68 0 2.36 0 1 C0 0.67 0 0.34 0 0 Z " fill="#4635D3" transform="translate(56,57)"/>
<path d="M0 0 C1.65 0 3.3 0 5 0 C4.67 0.94875 4.34 1.8975 4 2.875 C2.89840809 5.77062452 2.89840809 5.77062452 3 8 C2.01 8.33 1.02 8.66 0 9 C0 6.03 0 3.06 0 0 Z " fill="#FBFCFD" transform="translate(0,0)"/>
<path d="M0 0 C1.98 0 3.96 0 6 0 C5.67 0.99 5.34 1.98 5 3 C1.9375 4.1875 1.9375 4.1875 -1 5 C-1 2 -1 2 0 0 Z " fill="#E5E5FE" transform="translate(36,30)"/>
<path d="M0 0 C0.33 0 0.66 0 1 0 C1 2.64 1 5.28 1 8 C2.32 8.33 3.64 8.66 5 9 C2 11 2 11 -1 11 C-2.60080151 6.99799622 -1.29279692 3.95443764 0 0 Z " fill="#574FCB" transform="translate(40,18)"/>
<path d="M0 0 C4.83256305 0.41421969 6.82679218 2.46413986 10 6 C9.01 6 8.02 6 7 6 C7 5.34 7 4.68 7 4 C4.69 3.34 2.38 2.68 0 2 C0 1.34 0 0.68 0 0 Z " fill="#5F5AD3" transform="translate(53,0)"/>
<path d="M0 0 C-1.125 1.5 -1.125 1.5 -3 3 C-6.1875 3.1875 -6.1875 3.1875 -9 3 C-5.83583464 -0.30799106 -4.50236011 -1.35070803 0 0 Z " fill="#6866E6" transform="translate(18,1)"/>
<path d="M0 0 C2.64 0 5.28 0 8 0 C7.67 1.65 7.34 3.3 7 5 C3.535 3.02 3.535 3.02 0 1 C0 0.67 0 0.34 0 0 Z " fill="#E6E7FB" transform="translate(56,0)"/>
<path d="M0 0 C2.64 1.98 5.28 3.96 8 6 C6.68 6.33 5.36 6.66 4 7 C1.75 5.25 1.75 5.25 0 3 C0 2.01 0 1.02 0 0 Z " fill="#CCCBFB" transform="translate(4,58)"/>
<path d="M0 0 C0.33 0 0.66 0 1 0 C1 2.31 1 4.62 1 7 C-0.98 7.99 -0.98 7.99 -3 9 C-2.01 6.03 -1.02 3.06 0 0 Z " fill="#DAD7FB" transform="translate(69,49)"/>
</svg>
